{
    "asset": {
        "version": "2.0",
        "generator": "Open Asset Import Library (assimp v5.0.cd42b995)"
    },
    "extensionsUsed": [
        "FB_ngon_encoding"
    ],
    "accessors": [
        {
            "bufferView": 0,
            "byteOffset": 0,
            "componentType": 5126,
            "count": 3377,
            "type": "VEC3",
            "max": [
                11.428326606750489,
                11.428326606750489,
                -132.84661865234376
            ],
            "min": [
                -11.428326606750489,
                -11.428326606750489,
                -140.8000030517578
            ]
        },
        {
            "bufferView": 1,
            "byteOffset": 0,
            "componentType": 5126,
            "count": 3377,
            "type": "VEC3",
            "max": [
                1.0,
                0.9999476671218872,
                1.0
            ],
            "min": [
                -0.9999547600746155,
                -0.9999998211860657,
                -1.0
            ]
        },
        {
            "bufferView": 2,
            "byteOffset": 0,
            "componentType": 5126,
            "count": 3377,
            "type": "VEC2",
            "max": [
                10.336000442504883,
                4.641602039337158
            ],
            "min": [
                -0.8119620084762573,
                -37.22895050048828
            ]
        },
        {
            "bufferView": 3,
            "byteOffset": 0,
            "componentType": 5125,
            "count": 12486,
            "type": "SCALAR",
            "max": [
                3376
            ],
            "min": [
                0
            ]
        },
        {
            "bufferView": 4,
            "byteOffset": 0,
            "componentType": 5126,
            "count": 2821,
            "type": "VEC3",
            "max": [
                7.928800106048584,
                7.928766250610352,
                -49.228515625
            ],
            "min": [
                -7.928800106048584,
                -7.928766250610352,
                -140.0
            ]
        },
        {
            "bufferView": 5,
            "byteOffset": 0,
            "componentType": 5126,
            "count": 2821,
            "type": "VEC3",
            "max": [
                1.0,
                1.0,
                1.0
            ],
            "min": [
                -1.0,
                -1.0,
                -1.0
            ]
        },
        {
            "bufferView": 6,
            "byteOffset": 0,
            "componentType": 5126,
            "count": 2821,
            "type": "VEC2",
            "max": [
                7.077147960662842,
                3.5319390296936037
            ],
            "min": [
                -10.319999694824219,
                -35.5836181640625
            ]
        },
        {
            "bufferView": 7,
            "byteOffset": 0,
            "componentType": 5125,
            "count": 9288,
            "type": "SCALAR",
            "max": [
                2820
            ],
            "min": [
                0
            ]
        },
        {
            "bufferView": 8,
            "byteOffset": 0,
            "componentType": 5126,
            "count": 1066,
            "type": "VEC3",
            "max": [
                9.501943588256836,
                9.515484809875489,
                34.00637435913086
            ],
            "min": [
                -9.520000457763672,
                -9.515484809875489,
                -49.22814178466797
            ]
        },
        {
            "bufferView": 9,
            "byteOffset": 0,
            "componentType": 5126,
            "count": 1066,
            "type": "VEC3",
            "max": [
                1.0,
                1.0,
                1.0
            ],
            "min": [
                -1.0,
                -1.0,
                -1.0
            ]
        },
        {
            "bufferView": 10,
            "byteOffset": 0,
            "componentType": 5126,
            "count": 1066,
            "type": "VEC2",
            "max": [
                13.199999809265137,
                3.9907960891723635
            ],
            "min": [
                -5.523451805114746,
                -1.9907960891723633
            ]
        },
        {
            "bufferView": 11,
            "byteOffset": 0,
            "componentType": 5125,
            "count": 3954,
            "type": "SCALAR",
            "max": [
                1065
            ],
            "min": [
                0
            ]
        },
        {
            "bufferView": 12,
            "byteOffset": 0,
            "componentType": 5126,
            "count": 5625,
            "type": "VEC3",
            "max": [
                14.399999618530274,
                14.399273872375489,
                144.2998046875
            ],
            "min": [
                -14.399763107299805,
                -14.399785995483399,
                -22.03333282470703
            ]
        },
        {
            "bufferView": 13,
            "byteOffset": 0,
            "componentType": 5126,
            "count": 5625,
            "type": "VEC3",
            "max": [
                1.0,
                1.0,
                0.9935951828956604
            ],
            "min": [
                -1.0,
                -1.0,
                -0.9232526421546936
            ]
        },
        {
            "bufferView": 14,
            "byteOffset": 0,
            "componentType": 5126,
            "count": 5625,
            "type": "VEC2",
            "max": [
                9.502432823181153,
                5.523892879486084
            ],
            "min": [
                -11.534000396728516,
                -12.736347198486329
            ]
        },
        {
            "bufferView": 15,
            "byteOffset": 0,
            "componentType": 5125,
            "count": 29742,
            "type": "SCALAR",
            "max": [
                5624
            ],
            "min": [
                0
            ]
        }
    ],
    "buffers": [
        {
            "byteLength": 634328,
            "uri": "result.bin"
        }
    ],
    "bufferViews": [
        {
            "buffer": 0,
            "byteOffset": 0,
            "byteLength": 40524,
            "target": 34962
        },
        {
            "buffer": 0,
            "byteOffset": 40524,
            "byteLength": 40524,
            "target": 34962
        },
        {
            "buffer": 0,
            "byteOffset": 81048,
            "byteLength": 27016,
            "target": 34962
        },
        {
            "buffer": 0,
            "byteOffset": 108064,
            "byteLength": 49944,
            "target": 34963
        },
        {
            "buffer": 0,
            "byteOffset": 158008,
            "byteLength": 33852,
            "target": 34962
        },
        {
            "buffer": 0,
            "byteOffset": 191860,
            "byteLength": 33852,
            "target": 34962
        },
        {
            "buffer": 0,
            "byteOffset": 225712,
            "byteLength": 22568,
            "target": 34962
        },
        {
            "buffer": 0,
            "byteOffset": 248280,
            "byteLength": 37152,
            "target": 34963
        },
        {
            "buffer": 0,
            "byteOffset": 285432,
            "byteLength": 12792,
            "target": 34962
        },
        {
            "buffer": 0,
            "byteOffset": 298224,
            "byteLength": 12792,
            "target": 34962
        },
        {
            "buffer": 0,
            "byteOffset": 311016,
            "byteLength": 8528,
            "target": 34962
        },
        {
            "buffer": 0,
            "byteOffset": 319544,
            "byteLength": 15816,
            "target": 34963
        },
        {
            "buffer": 0,
            "byteOffset": 335360,
            "byteLength": 67500,
            "target": 34962
        },
        {
            "buffer": 0,
            "byteOffset": 402860,
            "byteLength": 67500,
            "target": 34962
        },
        {
            "buffer": 0,
            "byteOffset": 470360,
            "byteLength": 45000,
            "target": 34962
        },
        {
            "buffer": 0,
            "byteOffset": 515360,
            "byteLength": 118968,
            "target": 34963
        }
    ],
    "materials": [
        {
            "name": "DefaultMaterial",
            "pbrMetallicRoughness": {
                "baseColorFactor": [
                    0.6000000238418579,
                    0.6000000238418579,
                    0.6000000238418579,
                    1.0
                ],
                "metallicFactor": 0.0
            }
        },
        {
            "name": "Powder_Coat_(White)",
            "pbrMetallicRoughness": {
                "baseColorFactor": [
                    0.6000000238418579,
                    0.6000000238418579,
                    0.6000000238418579,
                    1.0
                ],
                "metallicFactor": 0.0
            }
        }
    ],
    "meshes": [
        {
            "name": "Lid",
            "primitives": [
                {
                    "mode": 4,
                    "material": 1,
                    "indices": 3,
                    "attributes": {
                        "POSITION": 0,
                        "NORMAL": 1,
                        "TEXCOORD_0": 2
                    }
                }
            ]
        },
        {
            "name": "Pole",
            "primitives": [
                {
                    "mode": 4,
                    "material": 1,
                    "indices": 7,
                    "attributes": {
                        "POSITION": 4,
                        "NORMAL": 5,
                        "TEXCOORD_0": 6
                    }
                }
            ]
        },
        {
            "name": "Pole (1)",
            "primitives": [
                {
                    "mode": 4,
                    "material": 1,
                    "indices": 11,
                    "attributes": {
                        "POSITION": 8,
                        "NORMAL": 9,
                        "TEXCOORD_0": 10
                    }
                }
            ]
        },
        {
            "name": "Container",
            "primitives": [
                {
                    "mode": 4,
                    "material": 1,
                    "indices": 15,
                    "attributes": {
                        "POSITION": 12,
                        "NORMAL": 13,
                        "TEXCOORD_0": 14
                    }
                }
            ]
        }
    ],
    "nodes": [
        {
            "name": "input.obj",
            "children": [
                1,
                2,
                3,
                4
            ]
        },
        {
            "name": "Lid",
            "mesh": 0
        },
        {
            "name": "Pole",
            "mesh": 1
        },
        {
            "name": "Pole (1)",
            "mesh": 2
        },
        {
            "name": "Container",
            "mesh": 3
        }
    ],
    "scenes": [
        {
            "nodes": [
                0
            ]
        }
    ],
    "scene": 0
}