{
    "asset" : {
        "generator" : "Khronos glTF Blender I/O v1.3.48",
        "version" : "2.0"
    },
    "scene" : 0,
    "scenes" : [
        {
            "name" : "Scene",
            "nodes" : [
                22
            ]
        }
    ],
    "nodes" : [
        {
            "mesh" : 0,
            "name" : "Body1",
            "scale" : [
                10,
                10,
                10
            ]
        },
        {
            "children" : [
                0
            ],
            "name" : "Coils"
        },
        {
            "children" : [
                1
            ],
            "name" : "Coils:1",
            "translation" : [
                0,
                0,
                -6.5
            ]
        },
        {
            "mesh" : 1,
            "name" : "inner balloon.001",
            "scale" : [
                10,
                10,
                10
            ]
        },
        {
            "children" : [
                3
            ],
            "name" : "inner balloon"
        },
        {
            "children" : [
                4
            ],
            "name" : "inner balloon:1"
        },
        {
            "mesh" : 2,
            "name" : "bottom cone",
            "scale" : [
                10,
                10,
                10
            ]
        },
        {
            "mesh" : 3,
            "name" : "plunger",
            "scale" : [
                10,
                10,
                10
            ]
        },
        {
            "children" : [
                6,
                7
            ],
            "name" : "Outer balloon"
        },
        {
            "children" : [
                8
            ],
            "name" : "Outer balloon:1"
        },
        {
            "mesh" : 4,
            "name" : "plastic tube.001",
            "scale" : [
                10,
                10,
                10
            ]
        },
        {
            "children" : [
                10
            ],
            "name" : "plastic tube"
        },
        {
            "children" : [
                11
            ],
            "name" : "plastic tube:1"
        },
        {
            "mesh" : 5,
            "name" : "pull sheet",
            "scale" : [
                10,
                10,
                10
            ]
        },
        {
            "children" : [
                13
            ],
            "name" : "push tool"
        },
        {
            "children" : [
                14
            ],
            "name" : "push tool:1"
        },
        {
            "mesh" : 6,
            "name" : "skin.001",
            "scale" : [
                10,
                10,
                10
            ]
        },
        {
            "children" : [
                16
            ],
            "name" : "skin"
        },
        {
            "children" : [
                17
            ],
            "name" : "skin:1",
            "translation" : [
                0,
                0,
                -1.100000023841858
            ]
        },
        {
            "mesh" : 7,
            "name" : "tube sealing (1)",
            "scale" : [
                10,
                10,
                10
            ]
        },
        {
            "children" : [
                19
            ],
            "name" : "tube sealing"
        },
        {
            "children" : [
                20
            ],
            "name" : "tube sealing:1"
        },
        {
            "children" : [
                2,
                5,
                9,
                12,
                15,
                18,
                21
            ],
            "name" : "mod.1 v13 v3 v36",
            "rotation" : [
                1,
                0,
                0,
                -1.6292068494294654e-07
            ],
            "scale" : [
                0.04260259121656418,
                0.04260259121656418,
                0.04260259121656418
            ],
            "translation" : [
                0,
                -0.00015163421630859375,
                5.571530818939209
            ]
        }
    ],
    "materials" : [
        {
            "doubleSided" : true,
            "emissiveFactor" : [
                0,
                0,
                0
            ],
            "name" : "Plastic - Translucent Glossy (Green)",
            "pbrMetallicRoughness" : {
                "baseColorFactor" : [
                    0.043334897607564926,
                    0.17609883844852448,
                    0.04285062476992607,
                    1
                ],
                "metallicFactor" : 0.08504396677017212,
                "roughnessFactor" : 0.5117306709289551
            }
        },
        {
            "doubleSided" : true,
            "emissiveFactor" : [
                0,
                0,
                0
            ],
            "name" : "Polycarbonate (Clear)",
            "pbrMetallicRoughness" : {
                "baseColorFactor" : [
                    0.547709584236145,
                    0.4946538209915161,
                    0.5870110392570496,
                    1
                ],
                "metallicFactor" : 0.0997067466378212,
                "roughnessFactor" : 0.5527864098548889
            }
        },
        {
            "doubleSided" : true,
            "emissiveFactor" : [
                0,
                0,
                0
            ],
            "name" : "Plastic - Translucent Matte (Red)",
            "pbrMetallicRoughness" : {
                "baseColorFactor" : [
                    0.768627405166626,
                    0.15671344101428986,
                    0.11272402852773666,
                    1
                ],
                "metallicFactor" : 0.07331377267837524,
                "roughnessFactor" : 0.3299125134944916
            }
        },
        {
            "doubleSided" : true,
            "emissiveFactor" : [
                0,
                0,
                0
            ],
            "name" : "Paek (Beige)",
            "pbrMetallicRoughness" : {
                "baseColorFactor" : [
                    0.8980392217636108,
                    0.7921568751335144,
                    0.6196078658103943,
                    1
                ],
                "metallicFactor" : 1,
                "roughnessFactor" : 0.5527864098548889
            }
        }
    ],
    "meshes" : [
        {
            "name" : "Body1",
            "primitives" : [
                {
                    "attributes" : {
                        "POSITION" : 0,
                        "NORMAL" : 1,
                        "TEXCOORD_0" : 2
                    },
                    "indices" : 3,
                    "material" : 0
                }
            ]
        },
        {
            "name" : "inner balloon",
            "primitives" : [
                {
                    "attributes" : {
                        "POSITION" : 4,
                        "NORMAL" : 5,
                        "TEXCOORD_0" : 6
                    },
                    "indices" : 7,
                    "material" : 0
                }
            ]
        },
        {
            "name" : "bottom cone",
            "primitives" : [
                {
                    "attributes" : {
                        "POSITION" : 8,
                        "NORMAL" : 9,
                        "TEXCOORD_0" : 10
                    },
                    "indices" : 11,
                    "material" : 0
                }
            ]
        },
        {
            "name" : "plunger",
            "primitives" : [
                {
                    "attributes" : {
                        "POSITION" : 12,
                        "NORMAL" : 13,
                        "TEXCOORD_0" : 14
                    },
                    "indices" : 15,
                    "material" : 0
                }
            ]
        },
        {
            "name" : "plastic tube",
            "primitives" : [
                {
                    "attributes" : {
                        "POSITION" : 16,
                        "NORMAL" : 17,
                        "TEXCOORD_0" : 18
                    },
                    "indices" : 19,
                    "material" : 1
                }
            ]
        },
        {
            "name" : "pull sheet",
            "primitives" : [
                {
                    "attributes" : {
                        "POSITION" : 20,
                        "NORMAL" : 21,
                        "TEXCOORD_0" : 22
                    },
                    "indices" : 23,
                    "material" : 2
                }
            ]
        },
        {
            "name" : "skin",
            "primitives" : [
                {
                    "attributes" : {
                        "POSITION" : 24,
                        "NORMAL" : 25,
                        "TEXCOORD_0" : 26
                    },
                    "indices" : 27,
                    "material" : 3
                }
            ]
        },
        {
            "name" : "tube sealing (1)",
            "primitives" : [
                {
                    "attributes" : {
                        "POSITION" : 28,
                        "NORMAL" : 29,
                        "TEXCOORD_0" : 30
                    },
                    "indices" : 31,
                    "material" : 0
                }
            ]
        }
    ],
    "accessors" : [
        {
            "bufferView" : 0,
            "componentType" : 5126,
            "count" : 12283,
            "max" : [
                0.4704430401325226,
                0.4704430401325226,
                13.41088581085205
            ],
            "min" : [
                -0.4704430401325226,
                -0.4704430401325226,
                13.050537109375
            ],
            "type" : "VEC3"
        },
        {
            "bufferView" : 1,
            "componentType" : 5126,
            "count" : 12283,
            "type" : "VEC3"
        },
        {
            "bufferView" : 2,
            "componentType" : 5126,
            "count" : 12283,
            "type" : "VEC2"
        },
        {
            "bufferView" : 3,
            "componentType" : 5123,
            "count" : 68154,
            "type" : "SCALAR"
        },
        {
            "bufferView" : 4,
            "componentType" : 5126,
            "count" : 882,
            "max" : [
                0.4209032654762268,
                0.4209498167037964,
                12.852338790893555
            ],
            "min" : [
                -0.4209032654762268,
                -0.4209498167037964,
                12.36797046661377
            ],
            "type" : "VEC3"
        },
        {
            "bufferView" : 5,
            "componentType" : 5126,
            "count" : 882,
            "type" : "VEC3"
        },
        {
            "bufferView" : 6,
            "componentType" : 5126,
            "count" : 882,
            "type" : "VEC2"
        },
        {
            "bufferView" : 7,
            "componentType" : 5123,
            "count" : 3300,
            "type" : "SCALAR"
        },
        {
            "bufferView" : 8,
            "componentType" : 5126,
            "count" : 4028,
            "max" : [
                1.6093814373016357,
                1.6095116138458252,
                12.82671070098877
            ],
            "min" : [
                -1.6093814373016357,
                -1.609573483467102,
                12.34296989440918
            ],
            "type" : "VEC3"
        },
        {
            "bufferView" : 9,
            "componentType" : 5126,
            "count" : 4028,
            "type" : "VEC3"
        },
        {
            "bufferView" : 10,
            "componentType" : 5126,
            "count" : 4028,
            "type" : "VEC2"
        },
        {
            "bufferView" : 11,
            "componentType" : 5123,
            "count" : 20628,
            "type" : "SCALAR"
        },
        {
            "bufferView" : 12,
            "componentType" : 5126,
            "count" : 1402,
            "max" : [
                1.3226627111434937,
                1.3226627111434937,
                13.813511848449707
            ],
            "min" : [
                -1.3226627111434937,
                -1.3226627111434937,
                12.851163864135742
            ],
            "type" : "VEC3"
        },
        {
            "bufferView" : 13,
            "componentType" : 5126,
            "count" : 1402,
            "type" : "VEC3"
        },
        {
            "bufferView" : 14,
            "componentType" : 5126,
            "count" : 1402,
            "type" : "VEC2"
        },
        {
            "bufferView" : 15,
            "componentType" : 5123,
            "count" : 5532,
            "type" : "SCALAR"
        },
        {
            "bufferView" : 16,
            "componentType" : 5126,
            "count" : 4711,
            "max" : [
                0.3174999952316284,
                3.029116630554199,
                23
            ],
            "min" : [
                -0.3174999952316284,
                -0.33086496591567993,
                -5.919773005125251e-10
            ],
            "type" : "VEC3"
        },
        {
            "bufferView" : 17,
            "componentType" : 5126,
            "count" : 4711,
            "type" : "VEC3"
        },
        {
            "bufferView" : 18,
            "componentType" : 5126,
            "count" : 4711,
            "type" : "VEC2"
        },
        {
            "bufferView" : 19,
            "componentType" : 5123,
            "count" : 23442,
            "type" : "SCALAR"
        },
        {
            "bufferView" : 20,
            "componentType" : 5126,
            "count" : 1002,
            "max" : [
                0.6962798833847046,
                0.6962798833847046,
                14.625222206115723
            ],
            "min" : [
                -0.6962798833847046,
                -0.6962798833847046,
                12.203378677368164
            ],
            "type" : "VEC3"
        },
        {
            "bufferView" : 21,
            "componentType" : 5126,
            "count" : 1002,
            "type" : "VEC3"
        },
        {
            "bufferView" : 22,
            "componentType" : 5126,
            "count" : 1002,
            "type" : "VEC2"
        },
        {
            "bufferView" : 23,
            "componentType" : 5123,
            "count" : 4284,
            "type" : "SCALAR"
        },
        {
            "bufferView" : 24,
            "componentType" : 5126,
            "count" : 188,
            "max" : [
                1.7046115398406982,
                1.5258952379226685,
                13.51705265045166
            ],
            "min" : [
                -1.6151368618011475,
                -1.530102252960205,
                12.95205307006836
            ],
            "type" : "VEC3"
        },
        {
            "bufferView" : 25,
            "componentType" : 5126,
            "count" : 188,
            "type" : "VEC3"
        },
        {
            "bufferView" : 26,
            "componentType" : 5126,
            "count" : 188,
            "type" : "VEC2"
        },
        {
            "bufferView" : 27,
            "componentType" : 5123,
            "count" : 636,
            "type" : "SCALAR"
        },
        {
            "bufferView" : 28,
            "componentType" : 5126,
            "count" : 800,
            "max" : [
                0.6168003678321838,
                0.6168003678321838,
                12.334468841552734
            ],
            "min" : [
                -0.6168003678321838,
                -0.6168003678321838,
                12.080175399780273
            ],
            "type" : "VEC3"
        },
        {
            "bufferView" : 29,
            "componentType" : 5126,
            "count" : 800,
            "type" : "VEC3"
        },
        {
            "bufferView" : 30,
            "componentType" : 5126,
            "count" : 800,
            "type" : "VEC2"
        },
        {
            "bufferView" : 31,
            "componentType" : 5123,
            "count" : 2844,
            "type" : "SCALAR"
        }
    ],
    "bufferViews" : [
        {
            "buffer" : 0,
            "byteLength" : 147396,
            "byteOffset" : 0
        },
        {
            "buffer" : 0,
            "byteLength" : 147396,
            "byteOffset" : 147396
        },
        {
            "buffer" : 0,
            "byteLength" : 98264,
            "byteOffset" : 294792
        },
        {
            "buffer" : 0,
            "byteLength" : 136308,
            "byteOffset" : 393056
        },
        {
            "buffer" : 0,
            "byteLength" : 10584,
            "byteOffset" : 529364
        },
        {
            "buffer" : 0,
            "byteLength" : 10584,
            "byteOffset" : 539948
        },
        {
            "buffer" : 0,
            "byteLength" : 7056,
            "byteOffset" : 550532
        },
        {
            "buffer" : 0,
            "byteLength" : 6600,
            "byteOffset" : 557588
        },
        {
            "buffer" : 0,
            "byteLength" : 48336,
            "byteOffset" : 564188
        },
        {
            "buffer" : 0,
            "byteLength" : 48336,
            "byteOffset" : 612524
        },
        {
            "buffer" : 0,
            "byteLength" : 32224,
            "byteOffset" : 660860
        },
        {
            "buffer" : 0,
            "byteLength" : 41256,
            "byteOffset" : 693084
        },
        {
            "buffer" : 0,
            "byteLength" : 16824,
            "byteOffset" : 734340
        },
        {
            "buffer" : 0,
            "byteLength" : 16824,
            "byteOffset" : 751164
        },
        {
            "buffer" : 0,
            "byteLength" : 11216,
            "byteOffset" : 767988
        },
        {
            "buffer" : 0,
            "byteLength" : 11064,
            "byteOffset" : 779204
        },
        {
            "buffer" : 0,
            "byteLength" : 56532,
            "byteOffset" : 790268
        },
        {
            "buffer" : 0,
            "byteLength" : 56532,
            "byteOffset" : 846800
        },
        {
            "buffer" : 0,
            "byteLength" : 37688,
            "byteOffset" : 903332
        },
        {
            "buffer" : 0,
            "byteLength" : 46884,
            "byteOffset" : 941020
        },
        {
            "buffer" : 0,
            "byteLength" : 12024,
            "byteOffset" : 987904
        },
        {
            "buffer" : 0,
            "byteLength" : 12024,
            "byteOffset" : 999928
        },
        {
            "buffer" : 0,
            "byteLength" : 8016,
            "byteOffset" : 1011952
        },
        {
            "buffer" : 0,
            "byteLength" : 8568,
            "byteOffset" : 1019968
        },
        {
            "buffer" : 0,
            "byteLength" : 2256,
            "byteOffset" : 1028536
        },
        {
            "buffer" : 0,
            "byteLength" : 2256,
            "byteOffset" : 1030792
        },
        {
            "buffer" : 0,
            "byteLength" : 1504,
            "byteOffset" : 1033048
        },
        {
            "buffer" : 0,
            "byteLength" : 1272,
            "byteOffset" : 1034552
        },
        {
            "buffer" : 0,
            "byteLength" : 9600,
            "byteOffset" : 1035824
        },
        {
            "buffer" : 0,
            "byteLength" : 9600,
            "byteOffset" : 1045424
        },
        {
            "buffer" : 0,
            "byteLength" : 6400,
            "byteOffset" : 1055024
        },
        {
            "buffer" : 0,
            "byteLength" : 5688,
            "byteOffset" : 1061424
        }
    ],
    "buffers" : [
        {
            "byteLength" : 1067112,
            "uri" : "data:application/octet-stream;base64,"
        }
    ]
}
