{
    "asset" : {
        "generator" : "Khronos glTF Blender I/O v1.3.48",
        "version" : "2.0"
    },
    "scene" : 0,
    "scenes" : [
        {
            "name" : "Scene",
            "nodes" : [
                2
            ]
        }
    ],
    "nodes" : [
        {
            "mesh" : 0,
            "name" : "Body1.010",
            "scale" : [
                10,
                10,
                10
            ],
            "translation" : [
                -16.386287689208984,
                3.002795934677124,
                -11.0350980758667
            ]
        },
        {
            "mesh" : 1,
            "name" : "MeshBody1",
            "scale" : [
                10,
                10,
                10
            ],
            "translation" : [
                -19.861806869506836,
                1.5590860843658447,
                -11.255617141723633
            ]
        },
        {
            "children" : [
                0,
                1
            ],
            "name" : "mitral_valve_ring v1",
            "rotation" : [
                -0.08640913665294647,
                0.10205533355474472,
                0.1804600954055786,
                -0.9744497537612915
            ],
            "scale" : [
                0.09253349900245667,
                0.09253348410129547,
                0.09253348410129547
            ],
            "translation" : [
                1.0393397808074951,
                -0.00019943714141845703,
                0.5902529954910278
            ]
        }
    ],
    "materials" : [
        {
            "doubleSided" : true,
            "emissiveFactor" : [
                0,
                0,
                0
            ],
            "name" : "Material",
            "pbrMetallicRoughness" : {
                "baseColorFactor" : [
                    0.8000000715255737,
                    0.26423341035842896,
                    0.738598108291626,
                    1
                ],
                "metallicFactor" : 0,
                "roughnessFactor" : 0
            }
        },
        {
            "doubleSided" : true,
            "emissiveFactor" : [
                0,
                0,
                0
            ],
            "name" : "Material.016",
            "pbrMetallicRoughness" : {
                "baseColorFactor" : [
                    0.5642355680465698,
                    0.8000000715255737,
                    0.7087781429290771,
                    1
                ],
                "metallicFactor" : 0,
                "roughnessFactor" : 0.5
            }
        }
    ],
    "meshes" : [
        {
            "name" : "Body1.015",
            "primitives" : [
                {
                    "attributes" : {
                        "POSITION" : 0,
                        "NORMAL" : 1,
                        "TEXCOORD_0" : 2
                    },
                    "indices" : 3,
                    "material" : 0
                }
            ]
        },
        {
            "name" : "MeshBody1",
            "primitives" : [
                {
                    "attributes" : {
                        "POSITION" : 4,
                        "NORMAL" : 5,
                        "TEXCOORD_0" : 6
                    },
                    "indices" : 7,
                    "material" : 1
                }
            ]
        }
    ],
    "accessors" : [
        {
            "bufferView" : 0,
            "componentType" : 5126,
            "count" : 2746,
            "max" : [
                1.7424167394638062,
                0.22857460379600525,
                1.6843583583831787
            ],
            "min" : [
                -1.8316106796264648,
                -0.24861586093902588,
                -1.6996451616287231
            ],
            "type" : "VEC3"
        },
        {
            "bufferView" : 1,
            "componentType" : 5126,
            "count" : 2746,
            "type" : "VEC3"
        },
        {
            "bufferView" : 2,
            "componentType" : 5126,
            "count" : 2746,
            "type" : "VEC2"
        },
        {
            "bufferView" : 3,
            "componentType" : 5123,
            "count" : 15222,
            "type" : "SCALAR"
        },
        {
            "bufferView" : 4,
            "componentType" : 5126,
            "count" : 31314,
            "max" : [
                2.4809744358062744,
                1.6085292100906372,
                2.6550402641296387
            ],
            "min" : [
                -2.9078102111816406,
                -1.4897938966751099,
                -2.5749170780181885
            ],
            "type" : "VEC3"
        },
        {
            "bufferView" : 5,
            "componentType" : 5126,
            "count" : 31314,
            "type" : "VEC3"
        },
        {
            "bufferView" : 6,
            "componentType" : 5126,
            "count" : 31314,
            "type" : "VEC2"
        },
        {
            "bufferView" : 7,
            "componentType" : 5123,
            "count" : 187872,
            "type" : "SCALAR"
        }
    ],
    "bufferViews" : [
        {
            "buffer" : 0,
            "byteLength" : 32952,
            "byteOffset" : 0
        },
        {
            "buffer" : 0,
            "byteLength" : 32952,
            "byteOffset" : 32952
        },
        {
            "buffer" : 0,
            "byteLength" : 21968,
            "byteOffset" : 65904
        },
        {
            "buffer" : 0,
            "byteLength" : 30444,
            "byteOffset" : 87872
        },
        {
            "buffer" : 0,
            "byteLength" : 375768,
            "byteOffset" : 118316
        },
        {
            "buffer" : 0,
            "byteLength" : 375768,
            "byteOffset" : 494084
        },
        {
            "buffer" : 0,
            "byteLength" : 250512,
            "byteOffset" : 869852
        },
        {
            "buffer" : 0,
            "byteLength" : 375744,
            "byteOffset" : 1120364
        }
    ],
    "buffers" : [
        {
            "byteLength" : 1496108,
            "uri" : "data:application/octet-stream;base64,"
        }
    ]
}
